<svg width="896" height="894" viewBox="0 0 896 894" fill="none" xmlns="http://www.w3.org/2000/svg">
<path opacity="0.07" d="M814.349 376.824C814.349 381.679 814.241 386.533 813.918 391.064C860.298 426.341 896 501.965 896 568.527C896 641.022 853.611 675.22 801.298 645.013C801.19 644.906 801.082 644.906 800.975 644.798L472.323 455.253C472.215 455.145 472.107 455.145 471.891 455.037C413.107 421.055 365.432 327.523 365.432 246.074C365.432 169.803 407.282 131.074 460.889 154.484C467.469 102.162 502.524 79.6154 544.805 104.104C565.083 115.863 583.743 136.468 598.304 161.28C619.445 129.887 655.47 121.904 696.242 145.422C761.497 182.964 814.349 286.637 814.349 376.824Z" fill="url(#paint0_linear_7_56)"/>
<path opacity="0.4" d="M760.419 428.607C760.419 433.461 760.311 438.316 759.987 442.847C806.368 478.123 842.07 553.747 842.07 620.309C842.07 692.804 799.68 727.002 747.368 696.796C747.26 696.688 747.152 696.688 747.044 696.58L418.392 507.035C418.284 506.927 418.176 506.927 417.961 506.819C359.176 472.837 311.502 379.305 311.502 297.856C311.502 221.585 353.352 182.856 406.959 206.266C413.538 153.945 448.593 131.398 490.875 155.886C511.152 167.645 529.812 188.25 544.374 213.063C565.514 181.67 601.54 173.687 642.311 197.204C707.567 234.747 760.419 338.419 760.419 428.607Z" fill="url(#paint1_linear_7_56)"/>
<path opacity="0.2" d="M240.098 520.952L190.051 492.04V475.103L240.098 504.014C244.197 506.388 250.13 511.135 255.199 518.47C260.7 526.346 264.583 536.271 264.583 547.059C264.583 558.925 261.563 565.722 255.738 567.664C250.345 569.498 243.981 566.369 239.991 564.104L219.389 552.237L219.281 552.129C217.556 551.05 214.751 550.079 212.486 550.726C210.652 551.266 208.603 553.1 208.603 559.68C208.603 566.261 210.652 570.361 212.378 572.734C214.535 575.755 217.34 577.912 219.066 578.775L219.281 578.883L282.164 615.239V632.176L219.605 596.036C215.291 593.771 209.142 589.024 203.749 581.472C197.925 573.273 193.826 562.809 193.934 551.158C193.934 539.615 197.925 533.681 203.749 532.063C209.142 530.553 215.291 532.711 219.605 535.408L239.991 547.166C242.903 548.892 245.168 549.648 246.57 549.108C247.649 548.785 249.806 547.166 249.806 538.536C249.806 533.034 247.972 529.366 246.354 526.885C244.413 524.08 241.716 521.923 240.098 520.952Z" fill="white"/>
<path d="M200.836 487.832C200.836 501.749 192.639 508.329 182.608 502.612C172.577 496.786 164.379 480.82 164.379 466.796C164.379 452.879 172.577 446.299 182.608 452.016C192.639 457.842 200.836 473.916 200.836 487.832Z" fill="#ED8074"/>
<path d="M307.619 637.785C307.619 651.702 299.421 658.283 289.39 652.565C279.359 646.739 271.162 630.773 271.162 616.749C271.162 602.832 279.359 596.252 289.39 601.969C299.421 607.795 307.619 623.869 307.619 637.785Z" fill="#ED8074"/>
<path opacity="0.07" d="M393.8 279.409L717.275 466.149V637.354L393.692 450.614L393.8 279.409Z" fill="url(#paint2_linear_7_56)"/>
<path opacity="0.3" d="M350.548 300.985L674.022 487.724V658.93L350.548 472.19V300.985Z" fill="url(#paint3_linear_7_56)"/>
<path d="M379.562 402.931C379.562 416.74 387.759 432.598 397.79 438.424C407.821 444.249 416.019 437.776 416.019 423.968C416.019 410.159 407.821 394.301 397.79 388.475C387.759 382.65 379.562 389.123 379.562 402.931Z" fill="#ED8074"/>
<path opacity="0.15" d="M425.188 429.577C425.188 435.942 428.963 443.386 433.709 446.083C438.347 448.78 442.122 445.759 442.122 439.395C442.122 433.03 438.347 425.586 433.601 422.889C428.963 420.192 425.188 423.213 425.188 429.577Z" fill="white"/>
<path opacity="0.15" d="M451.182 444.573C451.182 450.938 454.957 458.381 459.703 461.078C464.341 463.775 468.116 460.755 468.116 454.39C468.116 448.025 464.341 440.581 459.595 437.884C454.957 435.187 451.182 438.208 451.182 444.573Z" fill="white"/>
<path opacity="0.15" d="M592.371 473.7V571.116L579.644 563.78V466.364L592.371 473.7Z" fill="white"/>
<path opacity="0.15" d="M620.2 489.882V587.298L607.473 579.962V482.546L620.2 489.882Z" fill="white"/>
<path opacity="0.15" d="M648.135 506.064V603.48L635.408 596.144V498.728L648.135 506.064Z" fill="white"/>
<path opacity="0.07" d="M393.692 513.4L717.167 700.14V871.345L393.692 684.605V513.4Z" fill="url(#paint4_linear_7_56)"/>
<path opacity="0.3" d="M350.548 536.055L674.022 722.795V894L350.548 707.26V536.055Z" fill="url(#paint5_linear_7_56)"/>
<path d="M379.562 638.001C379.562 651.81 387.759 667.668 397.79 673.494C407.821 679.319 416.019 672.846 416.019 659.038C416.019 645.229 407.821 629.371 397.79 623.545C387.759 617.72 379.562 624.192 379.562 638.001Z" fill="#ED8074"/>
<path opacity="0.15" d="M425.188 664.755C425.188 671.12 428.963 678.564 433.709 681.261C438.347 683.958 442.122 680.937 442.122 674.572C442.122 668.207 438.347 660.764 433.601 658.067C428.963 655.37 425.188 658.283 425.188 664.755Z" fill="white"/>
<path opacity="0.15" d="M451.074 679.751C451.074 686.116 454.849 693.559 459.595 696.256C464.233 698.953 468.009 695.933 468.009 689.568C468.009 683.203 464.233 675.759 459.488 673.062C454.849 670.257 451.074 673.278 451.074 679.751Z" fill="white"/>
<path opacity="0.15" d="M592.371 712.115V809.53L579.644 802.194V704.779L592.371 712.115Z" fill="white"/>
<path opacity="0.15" d="M620.2 728.297V825.712L607.473 818.376V720.961L620.2 728.297Z" fill="white"/>
<path opacity="0.15" d="M648.135 744.478V841.894L635.408 834.558V737.143L648.135 744.478Z" fill="white"/>
<path opacity="0.3" d="M63.3145 47.3594L264.906 163.762V537.349L63.3145 420.839V47.3594Z" fill="url(#paint6_linear_7_56)"/>
<path d="M187.786 182.64C187.786 201.304 177 210.15 163.733 202.382C150.466 194.615 139.68 173.255 139.68 154.592C139.68 135.929 150.466 127.082 163.733 134.85C177 142.617 187.786 163.977 187.786 182.64Z" fill="#31AFB4"/>
<path d="M163.733 217.378C142.269 204.864 124.579 216.623 121.451 243.593C120.912 248.232 124.471 254.489 128.786 256.97L198.788 297.856C203.102 300.337 206.661 298.396 206.122 293.002C202.886 262.256 185.089 229.892 163.733 217.378Z" fill="#31AFB4"/>
<path opacity="0.15" d="M103.762 289.657L223.919 359.024V373.696L103.762 304.329V289.657Z" fill="white"/>
<path opacity="0.15" d="M115.95 325.797L211.192 380.708V395.379L115.95 340.469V325.797Z" fill="white"/>
<path d="M140.219 387.504L0 306.487V348.236L140.219 429.254V387.504Z" fill="#31AFB4"/>
<path opacity="0.2" d="M308.374 0L338.36 58.9024C342.458 66.9933 341.811 75.0843 336.85 77.0262C331.888 78.968 324.554 73.8977 320.455 65.8067L320.131 65.0515V130.427C320.131 137.87 314.954 140.891 308.482 137.223C302.011 133.447 296.833 124.493 296.833 117.05V51.6744L296.51 51.9981C292.411 55.3423 284.969 51.8902 280.115 44.2307C275.153 36.5712 274.506 27.7251 278.605 24.3808L308.374 0Z" fill="url(#paint7_linear_7_56)"/>
<path opacity="0.2" d="M308.374 869.727L278.389 810.824C274.29 802.733 274.937 794.642 279.899 792.701C284.861 790.759 292.195 795.829 296.294 803.92L296.617 804.675V739.3C296.617 731.856 301.795 728.836 308.266 732.504C314.738 736.279 319.915 745.234 319.915 752.677V818.052L320.239 817.729C324.338 814.384 331.78 817.837 336.634 825.496C341.595 833.156 342.243 842.002 338.144 845.346L308.374 869.727Z" fill="url(#paint8_linear_7_56)"/>
<defs>
<linearGradient id="paint0_linear_7_56" x1="876.705" y1="170.811" x2="542.898" y2="487.379" gradientUnits="userSpaceOnUse">
<stop stop-color="white"/>
<stop offset="1" stop-color="white" stop-opacity="0"/>
</linearGradient>
<linearGradient id="paint1_linear_7_56" x1="822.763" y1="222.593" x2="488.957" y2="539.161" gradientUnits="userSpaceOnUse">
<stop stop-color="white"/>
<stop offset="1" stop-color="white" stop-opacity="0"/>
</linearGradient>
<linearGradient id="paint2_linear_7_56" x1="548.871" y1="293.099" x2="560.927" y2="595.938" gradientUnits="userSpaceOnUse">
<stop stop-color="white"/>
<stop offset="1" stop-color="white" stop-opacity="0"/>
</linearGradient>
<linearGradient id="paint3_linear_7_56" x1="505.724" y1="314.675" x2="517.781" y2="617.514" gradientUnits="userSpaceOnUse">
<stop stop-color="white"/>
<stop offset="1" stop-color="white" stop-opacity="0"/>
</linearGradient>
<linearGradient id="paint4_linear_7_56" x1="548.848" y1="527.127" x2="560.904" y2="829.965" gradientUnits="userSpaceOnUse">
<stop stop-color="white"/>
<stop offset="1" stop-color="white" stop-opacity="0"/>
</linearGradient>
<linearGradient id="paint5_linear_7_56" x1="505.702" y1="549.782" x2="517.758" y2="852.62" gradientUnits="userSpaceOnUse">
<stop stop-color="white"/>
<stop offset="1" stop-color="white" stop-opacity="0"/>
</linearGradient>
<linearGradient id="paint6_linear_7_56" x1="286.511" y1="80.193" x2="107.512" y2="390.255" gradientUnits="userSpaceOnUse">
<stop stop-color="white"/>
<stop offset="1" stop-color="white" stop-opacity="0"/>
</linearGradient>
<linearGradient id="paint7_linear_7_56" x1="329.713" y1="59.4158" x2="275" y2="89.9098" gradientUnits="userSpaceOnUse">
<stop stop-color="white"/>
<stop offset="1" stop-color="white" stop-opacity="0"/>
</linearGradient>
<linearGradient id="paint8_linear_7_56" x1="286.979" y1="810.351" x2="341.691" y2="779.857" gradientUnits="userSpaceOnUse">
<stop stop-color="white"/>
<stop offset="1" stop-color="white" stop-opacity="0"/>
</linearGradient>
</defs>
</svg>
