<svg width="41" height="40" viewBox="0 0 41 40" fill="none" xmlns="http://www.w3.org/2000/svg">
<path d="M36.9167 0.937522H4.41675C3.67935 0.930018 2.96908 1.21535 2.44181 1.73091C1.91453 2.24646 1.61331 2.95014 1.60425 3.68752V36.3188C1.61495 37.0551 1.91689 37.7571 2.44399 38.2714C2.97109 38.7856 3.68041 39.07 4.41675 39.0625H36.9167C37.6542 39.0684 38.364 38.7821 38.891 38.2662C39.418 37.7503 39.7194 37.0468 39.7292 36.3094V3.67815C39.7161 2.94292 39.4133 2.24261 38.8866 1.72942C38.36 1.21622 37.6521 0.931641 36.9167 0.937522Z" fill="#0076B2"/>
<path d="M7.2481 15.2281H12.9075V33.4375H7.2481V15.2281ZM10.0793 6.16565C10.7285 6.16565 11.363 6.35817 11.9026 6.71886C12.4423 7.07954 12.8629 7.59219 13.1111 8.19194C13.3594 8.79169 13.4242 9.4516 13.2973 10.0882C13.1705 10.7248 12.8576 11.3094 12.3984 11.7682C11.9392 12.227 11.3543 12.5392 10.7176 12.6655C10.0809 12.7917 9.42102 12.7263 8.8215 12.4775C8.22198 12.2287 7.70974 11.8076 7.34957 11.2676C6.9894 10.7276 6.79748 10.0929 6.7981 9.44377C6.79893 8.57407 7.14499 7.74028 7.76026 7.1256C8.37552 6.51092 9.20965 6.16565 10.0793 6.16565ZM16.4575 15.2281H21.8825V17.7281H21.9575C22.7137 16.2969 24.5575 14.7875 27.3106 14.7875C33.0418 14.775 34.1043 18.5469 34.1043 23.4375V33.4375H28.445V24.5781C28.445 22.4688 28.4075 19.7531 25.5043 19.7531C22.6012 19.7531 22.1075 22.0531 22.1075 24.4406V33.4375H16.4575V15.2281Z" fill="white"/>
</svg>
