<svg width="41" height="40" viewBox="0 0 41 40" fill="none" xmlns="http://www.w3.org/2000/svg">
<path d="M20.6668 1.66671C15.8559 1.61782 11.2225 3.48106 7.78472 6.84692C4.34697 10.2128 2.38626 14.8059 2.3335 19.6167C2.35203 23.4187 3.57507 27.1169 5.82693 30.1803C8.0788 33.2437 11.2436 35.5145 14.8668 36.6667C15.7835 36.8334 16.1168 36.2834 16.1168 35.8V32.75C11.0168 33.8334 9.9335 30.35 9.9335 30.35C9.59399 29.2565 8.87222 28.3218 7.90016 27.7167C6.2335 26.6167 8.0335 26.6334 8.0335 26.6334C8.60958 26.7104 9.16075 26.9168 9.64568 27.2372C10.1306 27.5576 10.5367 27.9837 10.8335 28.4834C11.3507 29.3802 12.1994 30.0382 13.1968 30.3156C14.1943 30.593 15.2608 30.4677 16.1668 29.9667C16.26 29.054 16.6733 28.2038 17.3335 27.5667C13.2668 27.1167 9.00016 25.5834 9.00016 18.7C8.9638 16.9045 9.62723 15.1652 10.8502 13.85C10.2932 12.3085 10.359 10.6106 11.0335 9.11671C11.0335 9.11671 12.5835 8.63338 16.0335 10.95C19.0367 10.1498 22.197 10.1498 25.2002 10.95C28.7002 8.63338 30.2002 9.11671 30.2002 9.11671C30.8747 10.6106 30.9405 12.3085 30.3835 13.85C31.6348 15.1411 32.3342 16.8687 32.3335 18.6667C32.3335 25.5667 28.0335 27.0834 24.0002 27.5334C24.4418 27.9622 24.7829 28.4835 24.9991 29.0598C25.2152 29.6362 25.301 30.2533 25.2502 30.8667V35.7834C25.2502 36.3667 25.5835 36.8334 26.5002 36.65C30.1131 35.4907 33.2673 33.2193 35.5122 30.1603C37.757 27.1012 38.9778 23.411 39.0002 19.6167C38.9474 14.8059 36.9867 10.2128 33.5489 6.84692C30.1112 3.48106 25.4777 1.61782 20.6668 1.66671Z" fill="white"/>
</svg>
