<svg width="41" height="40" viewBox="0 0 41 40" fill="none" xmlns="http://www.w3.org/2000/svg">
<path d="M20.3334 36.5833H28.6667V33.25H20.3334C13.1001 33.25 7.00008 27.15 7.00008 19.9167C7.00008 12.6833 13.1001 6.58333 20.3334 6.58333C27.5667 6.58333 33.6667 12.6833 33.6667 19.9167V22.3C33.6667 23.6167 32.4834 24.9167 31.1667 24.9167C29.8501 24.9167 28.6667 23.6167 28.6667 22.3V19.9167C28.6667 15.3167 24.9334 11.5833 20.3334 11.5833C15.7334 11.5833 12.0001 15.3167 12.0001 19.9167C12.0001 24.5167 15.7334 28.25 20.3334 28.25C22.6334 28.25 24.7334 27.3167 26.2334 25.8C27.3167 27.2833 29.1834 28.25 31.1667 28.25C34.4501 28.25 37.0001 25.5833 37.0001 22.3V19.9167C37.0001 10.7167 29.5334 3.25 20.3334 3.25C11.1334 3.25 3.66675 10.7167 3.66675 19.9167C3.66675 29.1167 11.1334 36.5833 20.3334 36.5833ZM20.3334 24.9167C17.5667 24.9167 15.3334 22.6833 15.3334 19.9167C15.3334 17.15 17.5667 14.9167 20.3334 14.9167C23.1001 14.9167 25.3334 17.15 25.3334 19.9167C25.3334 22.6833 23.1001 24.9167 20.3334 24.9167Z" fill="white"/>
</svg>
