<svg width="41" height="40" viewBox="0 0 41 40" fill="none" xmlns="http://www.w3.org/2000/svg">
<g clip-path="url(#clip0_26_270)">
<path d="M1.1919 19.7606C1.19097 23.1213 2.07574 26.4029 3.75813 29.2953L1.03101 39.1778L11.2209 36.526C14.0393 38.0488 17.1971 38.8467 20.4061 38.8469H20.4145C31.0079 38.8469 39.6312 30.2914 39.6357 19.7756C39.6378 14.68 37.6401 9.88832 34.0108 6.28336C30.382 2.67871 25.5559 0.692511 20.4137 0.690186C9.81909 0.690186 1.19643 9.24522 1.19206 19.7606" fill="url(#paint0_linear_26_270)"/>
<path d="M0.506012 19.7544C0.504919 23.2361 1.4214 26.635 3.16377 29.631L0.338867 39.8678L10.8942 37.1209C13.8025 38.6947 17.077 39.5245 20.4089 39.5257H20.4175C31.391 39.5257 40.324 30.6625 40.3287 19.7702C40.3306 14.4915 38.2611 9.5276 34.5021 5.79349C30.7426 2.05984 25.7438 0.00217054 20.4175 0C9.44218 0 0.510386 8.86202 0.506012 19.7544ZM6.79192 29.115L6.3978 28.4941C4.74103 25.8795 3.86656 22.8581 3.86781 19.7557C3.87141 10.7022 11.2951 3.33643 20.4238 3.33643C24.8445 3.33829 28.9991 5.04868 32.1239 8.15194C35.2486 11.2555 36.968 15.3811 36.9669 19.769C36.9628 28.8225 29.539 36.1891 20.4175 36.1891H20.411C17.4409 36.1876 14.5281 35.396 11.9878 33.9L11.3833 33.5442L5.11953 35.1741L6.79192 29.1149V29.115Z" fill="url(#paint1_linear_26_270)"/>
<path d="M15.4407 11.4958C15.068 10.6736 14.6757 10.657 14.3213 10.6426C14.031 10.6302 13.6993 10.6311 13.3678 10.6311C13.036 10.6311 12.4969 10.755 12.0412 11.2488C11.5851 11.7431 10.2998 12.9375 10.2998 15.3668C10.2998 17.7962 12.0826 20.144 12.3312 20.4738C12.58 20.8029 15.7729 25.9477 20.8298 27.9269C25.0325 29.5717 25.8877 29.2446 26.7998 29.1621C27.7121 29.08 29.7435 27.968 30.1579 26.815C30.5726 25.6621 30.5726 24.6739 30.4483 24.4674C30.3239 24.2617 29.9921 24.1381 29.4946 23.8913C28.9969 23.6443 26.551 22.4497 26.095 22.2849C25.6389 22.1203 25.3072 22.0381 24.9755 22.5325C24.6437 23.0262 23.6909 24.1381 23.4005 24.4674C23.1105 24.7975 22.8201 24.8386 22.3227 24.5916C21.8248 24.3438 20.2226 23.8231 18.3217 22.141C16.8427 20.8322 15.8442 19.2159 15.5539 18.7215C15.2637 18.2279 15.5229 17.9603 15.7723 17.7142C15.9959 17.493 16.27 17.1376 16.519 16.8494C16.7671 16.561 16.8499 16.3553 17.0158 16.026C17.1818 15.6964 17.0987 15.408 16.9745 15.161C16.8499 14.9141 15.8831 12.4721 15.4407 11.4958Z" fill="white"/>
</g>
<defs>
<linearGradient id="paint0_linear_26_270" x1="1931.27" y1="3849.45" x2="1931.27" y2="0.690186" gradientUnits="userSpaceOnUse">
<stop stop-color="#1FAF38"/>
<stop offset="1" stop-color="#60D669"/>
</linearGradient>
<linearGradient id="paint1_linear_26_270" x1="1999.83" y1="3986.78" x2="1999.83" y2="0" gradientUnits="userSpaceOnUse">
<stop stop-color="#F9F9F9"/>
<stop offset="1" stop-color="white"/>
</linearGradient>
<clipPath id="clip0_26_270">
<rect width="40" height="40" fill="white" transform="translate(0.333496)"/>
</clipPath>
</defs>
</svg>
