<svg width="41" height="40" viewBox="0 0 41 40" fill="none" xmlns="http://www.w3.org/2000/svg">
<g clip-path="url(#clip0_26_287)">
<path d="M31.2917 0H10.0417C4.86408 0 0.666748 4.19733 0.666748 9.375V30.625C0.666748 35.8027 4.86408 40 10.0417 40H31.2917C36.4694 40 40.6667 35.8027 40.6667 30.625V9.375C40.6667 4.19733 36.4694 0 31.2917 0Z" fill="white"/>
<path d="M31.2917 0H10.0417C4.86408 0 0.666748 4.19733 0.666748 9.375V30.625C0.666748 35.8027 4.86408 40 10.0417 40H31.2917C36.4694 40 40.6667 35.8027 40.6667 30.625V9.375C40.6667 4.19733 36.4694 0 31.2917 0Z" fill="#1D9BF0"/>
<path d="M31.8499 14.283C31.8671 14.5309 31.8671 14.7789 31.8671 15.0292C31.8671 22.6537 26.0627 31.4472 15.4491 31.4472V31.4425C12.3137 31.447 9.24316 30.549 6.60425 28.8558C7.06019 28.9106 7.51831 28.938 7.97769 28.9391C10.5764 28.9411 13.1003 28.0695 15.1439 26.4642C13.9399 26.4414 12.773 26.043 11.8065 25.3245C10.84 24.6061 10.1221 23.6036 9.75331 22.4572C10.6178 22.6239 11.509 22.5899 12.3583 22.3578C9.66643 21.8139 7.72972 19.4487 7.72972 16.7019V16.6287C8.5322 17.0757 9.43031 17.3234 10.3485 17.3509C7.81315 15.6564 7.03159 12.2834 8.56253 9.64624C10.0112 11.4289 11.8186 12.8869 13.8674 13.9255C15.9163 14.9641 18.1607 15.56 20.4549 15.6747C20.2261 14.6901 20.2599 13.6626 20.5528 12.6952C20.8458 11.7277 21.3876 10.8541 22.1241 10.1617C24.4482 7.97702 28.1033 8.08906 30.288 10.4119C31.5802 10.1567 32.8194 9.68302 33.9522 9.01109C33.5214 10.3471 32.62 11.4812 31.4157 12.2023C32.5595 12.0676 33.6766 11.7614 34.7292 11.2941C33.9549 12.4537 32.9798 13.4658 31.8499 14.283Z" fill="white"/>
</g>
<defs>
<clipPath id="clip0_26_287">
<rect width="40" height="40" fill="white" transform="translate(0.666748)"/>
</clipPath>
</defs>
</svg>
